<?xml version="1.0" encoding="UTF-8"?> <!-- Generator: Adobe Illustrator 24.0.0, SVG Export Plug-In . SVG Version: 6.00 Build 0) --> <svg xmlns="http://www.w3.org/2000/svg" xmlns:xlink="http://www.w3.org/1999/xlink" version="1.1" id="Layer_1" x="0px" y="0px" viewBox="0 0 300 82" style="enable-background:new 0 0 300 82;" xml:space="preserve" width="300" height="82"> <style type="text/css"> .st0{fill:#0883BF;} .st1{fill:#0998CE;} .st2{fill:#0A436A;} </style> <polygon class="st0" points="10.8,1.9 55.1,1.9 30.7,59.3 10.8,59.3 28,19.7 2.4,19.7 "></polygon> <path class="st1" d="M40.1,45.1"></path> <path class="st1" d="M57.1,59.3"></path> <polygon class="st0" points="54.1,19.7 93,19.7 100.6,1.9 61.5,1.9 "></polygon> <polygon class="st0" points="52.2,24.6 37,59.3 57,59.3 64.6,42.3 83.4,42.4 90.8,24.6 "></polygon> <path class="st2" d="M107.9,9.2l2.7-7h21.1l-2.7,7h-6.5l-6.8,17.9h-8.1l6.8-17.9H107.9z"></path> <path class="st2" d="M124.5,27.1L134,2.2h11.8c1.4,0,2.6,0.2,3.6,0.6c1,0.4,1.7,1,2.2,1.8c0.5,0.8,0.8,1.7,0.8,2.9 c0,1.1-0.3,2.4-0.8,3.8c-1.2,3.1-3.3,5.5-6.2,7c0.2,0.5,0.4,1.1,0.5,1.8l1,7h-9.4l-0.5-6.2c-0.1-0.4-0.1-0.7-0.2-1.1 c-0.1-0.3-0.4-0.5-1-0.5h-0.2l-3,7.7H124.5z M138.1,12.8h2.7c0.5,0,1-0.2,1.5-0.5c0.4-0.4,0.8-0.8,1-1.3c0.2-0.5,0.2-0.9,0-1.2 c-0.2-0.3-0.6-0.5-1.1-0.5h-2.7L138.1,12.8z"></path> <path class="st2" d="M156.9,2.5h8.1l-6.1,16c-0.6,1.7,0,2.5,1.9,2.5c1.9,0,3.1-0.8,3.8-2.5l6.1-16h8.1l-6.1,16.1 c-1.2,3.1-3,5.4-5.4,7c-2.4,1.6-5.4,2.4-9,2.4c-3.5,0-5.9-1-7.1-3c-1.2-2-1.2-4.6,0-7.7L156.9,2.5z"></path> <path class="st2" d="M189.4,12.2l-2.6,6.8h-11.4l2.6-6.8H189.4z"></path> <path class="st2" d="M198.2,2.1h18.4l-2.7,7h-10.2l-1.2,3.2h8.3l-2.6,7h-8.3l-2.9,7.7h-8.1L198.2,2.1z"></path> <path class="st2" d="M214.6,11.4c1.2-3.2,3.1-5.6,5.6-7.3c2.5-1.7,5.6-2.5,9.2-2.5c1.8,0,3.2,0.3,4.4,0.8c1.2,0.5,2.1,1.2,2.7,2.2 c0.6,0.9,0.9,2,1,3.3c0,1.3-0.3,2.8-0.9,4.4l-2.2,6.1c-1.2,3.2-3.1,5.6-5.6,7.2c-2.5,1.7-5.6,2.5-9.2,2.5c-1.8,0-3.2-0.2-4.4-0.7 c-1.2-0.5-2.1-1.2-2.7-2.1c-0.6-0.9-0.9-2-1-3.3c0-1.3,0.3-2.8,0.9-4.4L214.6,11.4z M226.3,18.3l2.6-7c0.3-0.9,0.3-1.5,0-2 c-0.4-0.5-1-0.7-2-0.7c-2.1,0-3.4,0.9-4.1,2.7l-2.6,7c-0.6,1.8,0,2.7,2,2.7C224.3,20.9,225.6,20,226.3,18.3z"></path> <path class="st2" d="M233.8,27l9.5-24.9h11.8c1.4,0,2.6,0.2,3.6,0.6c1,0.4,1.7,1,2.2,1.8c0.5,0.8,0.8,1.7,0.8,2.9 c0,1.1-0.3,2.4-0.8,3.8c-1.2,3.1-3.3,5.5-6.2,7c0.2,0.5,0.4,1.1,0.5,1.8l1,7h-9.4l-0.5-6.2c-0.1-0.4-0.1-0.7-0.2-1.1 c-0.1-0.3-0.4-0.5-1-0.5h-0.2l-3,7.7H233.8z M247.4,12.7h2.7c0.5,0,1-0.2,1.5-0.5c0.4-0.4,0.8-0.8,1-1.3c0.2-0.5,0.2-0.9,0-1.2 c-0.2-0.3-0.6-0.5-1.1-0.5h-2.7L247.4,12.7z"></path> <path class="st2" d="M275.1,2.1l1,12.2l10.3-12.2h7.6L284.5,27h-8.1l3.7-9.9l-4.4,5.4H270l-0.4-5.6L265.9,27h-7.7l9.5-24.9H275.1z"></path> <path class="st2" d="M103.5,58.9h-8.1l9.5-24.9h11.5c1.4,0,2.6,0.2,3.6,0.7c1,0.5,1.7,1.1,2.2,2c0.5,0.8,0.8,1.9,0.8,3 c0,1.2-0.3,2.5-0.8,4c-1.1,2.8-2.7,4.9-4.9,6.3c-2.2,1.4-4.7,2-7.6,2h-3.5L103.5,58.9z M108.8,45h2.4c0.7,0,1.2-0.2,1.7-0.6 c0.5-0.4,0.8-0.9,1.1-1.4c0.2-0.5,0.2-0.9,0.1-1.4c-0.2-0.4-0.6-0.6-1.3-0.6h-2.4L108.8,45z"></path> <path class="st2" d="M139.2,51.8l-2.7,7H119l9.5-24.9h8.1l-6.8,17.8H139.2z"></path> <path class="st2" d="M139.3,58.9L157.6,34h8.1L165,58.9h-8.7l0.4-3.4h-6.6l-2.2,3.4H139.3z M158.1,43.5l-3.7,5.6h3.1L158.1,43.5z"></path> <path class="st2" d="M183.8,39.9c-1.7,0-2.7,0.4-3,1.2c-0.2,0.5,0,0.9,0.5,1.1c0.5,0.2,1.5,0.4,2.8,0.6c6,1,8.1,4,6.1,9.1 c-1.9,4.9-6.5,7.4-13.7,7.4c-1.3,0-2.6-0.1-3.7-0.3c-1.1-0.2-2.1-0.5-2.8-1c-0.8-0.4-1.4-1-1.8-1.6c-0.4-0.7-0.6-1.4-0.6-2.3l0-1.5 l8-2.5l0.3,1.3c0.2,0.8,1.1,1.3,2.9,1.3c2,0,3.1-0.4,3.4-1.2c0.2-0.5,0-0.8-0.5-1c-0.5-0.2-1.3-0.4-2.4-0.6 c-0.6-0.1-1.2-0.2-1.6-0.3c-0.5-0.1-0.9-0.2-1.4-0.4c-0.4-0.2-0.8-0.3-1.2-0.6c-0.4-0.2-0.8-0.5-1.3-0.8c-1.9-1.3-2.2-3.6-0.9-7 c0.9-2.4,2.5-4.2,4.8-5.4c2.3-1.2,5.1-1.9,8.5-1.9c2.6,0,4.5,0.4,5.8,1.2c1.2,0.8,2,2.1,2.2,3.8l0.2,1.3l-7.6,2.8l-0.2-1.3 C186.2,40.4,185.4,39.9,183.8,39.9z"></path> <path class="st2" d="M196.1,41l2.7-7h21.1l-2.7,7h-6.5l-6.8,17.9h-8.1l6.8-17.9H196.1z"></path> <path class="st2" d="M231.7,34l-9.5,24.9h-8.1l9.5-24.9H231.7z"></path> <path class="st2" d="M246,43.6l0-1.1c0-0.7-0.1-1.2-0.4-1.5c-0.3-0.3-0.9-0.5-1.7-0.5c-1.2,0-2.1,0.2-2.7,0.7 c-0.6,0.5-1.1,1.3-1.6,2.4l-2.2,5.7c-0.4,1.1-0.5,1.9-0.3,2.4c0.2,0.5,1,0.7,2.2,0.7c1.5,0,2.7-0.7,3.7-2l0.9-1.2l6.7,2.8l-0.9,1.3 c-3.1,4.1-7.5,6.2-13,6.2c-1.8,0-3.2-0.3-4.4-0.8c-1.2-0.5-2.1-1.2-2.7-2.1c-0.6-0.9-0.9-2-1-3.3c0-1.3,0.3-2.7,0.9-4.3l2.2-5.8 c1.2-3.1,3-5.5,5.6-7.1c2.5-1.6,5.6-2.4,9.2-2.4c5.2,0,7.8,2.2,7.7,6.5c0,0,0,0.1,0,0.2c0,0.1,0,0.2,0,0.3c0,0.1,0,0.3,0,0.5 L246,43.6z"></path> <path class="st2" d="M268.7,39.9c-1.7,0-2.7,0.4-3,1.2c-0.2,0.5,0,0.9,0.5,1.1c0.5,0.2,1.5,0.4,2.8,0.6c6,1,8.1,4,6.1,9.1 c-1.9,4.9-6.5,7.4-13.7,7.4c-1.3,0-2.6-0.1-3.7-0.3c-1.1-0.2-2.1-0.5-2.8-1c-0.8-0.4-1.4-1-1.8-1.6c-0.4-0.7-0.6-1.4-0.6-2.3l0-1.5 l8-2.5l0.3,1.3c0.2,0.8,1.1,1.3,2.9,1.3c2,0,3.1-0.4,3.4-1.2c0.2-0.5,0-0.8-0.5-1c-0.5-0.2-1.3-0.4-2.4-0.6 c-0.6-0.1-1.2-0.2-1.6-0.3c-0.5-0.1-1-0.2-1.4-0.4c-0.4-0.2-0.8-0.3-1.2-0.6c-0.4-0.2-0.8-0.5-1.3-0.8c-1.9-1.3-2.2-3.6-0.9-7 c0.9-2.4,2.5-4.2,4.8-5.4c2.3-1.2,5.1-1.9,8.5-1.9c2.6,0,4.5,0.4,5.8,1.2c1.2,0.8,2,2.1,2.2,3.8l0.2,1.3l-7.6,2.8l-0.2-1.3 C271.1,40.4,270.2,39.9,268.7,39.9z"></path> <g> <polygon class="st0" points="87.3,78.8 89.5,78.8 93.3,68.9 91.1,68.9 "></polygon> <path class="st0" d="M101.5,71.2c-0.8,0-1.6,0.1-2.5,0.4c-0.3-0.3-0.9-0.4-1.6-0.4c-0.9,0-1.8,0.2-2.7,0.5L94,72l-2.6,6.9h2 l2.1-5.6c0.3-0.1,0.7-0.1,1.1-0.1c0.4,0,0.6,0.1,0.7,0.2c0.1,0.1,0.1,0.4-0.1,0.8l-1.8,4.7h2l1.8-4.7c0.1-0.3,0.2-0.6,0.2-0.9 c0.9-0.2,1.6-0.2,1.8,0.1c0.1,0.2,0.1,0.4-0.1,0.8l-1.8,4.7h2l1.7-4.6c0.4-0.9,0.4-1.7,0.1-2.2C103.1,71.5,102.4,71.2,101.5,71.2z"></path> <path class="st0" d="M109.1,71.2c-1.1,0-2,0.2-2.7,0.7c-0.7,0.5-1.2,1.2-1.6,2.2l-0.7,1.8c-0.2,0.5-0.3,0.9-0.3,1.3 c0,0.4,0.1,0.7,0.2,1c0.2,0.3,0.4,0.5,0.8,0.7c0.3,0.1,0.7,0.2,1.2,0.2c0.9,0,1.9-0.1,2.8-0.3l0.6-0.1L112,72l-0.5-0.3 C110.9,71.4,110.1,71.2,109.1,71.2z M108,77c-0.4,0.1-0.8,0.1-1.2,0.1c-0.4,0-0.7-0.1-0.8-0.3c-0.1-0.2-0.1-0.4,0-0.8l0.7-1.7 c0.2-0.4,0.4-0.8,0.7-0.9c0.3-0.2,0.7-0.3,1.2-0.3c0.3,0,0.7,0,0.9,0.1L108,77z"></path> <path class="st0" d="M117,71.2c-1.1,0-2,0.2-2.7,0.7c-0.7,0.5-1.2,1.2-1.6,2.1l-0.6,1.5c-0.4,0.9-0.4,1.7-0.1,2.3 c0.3,0.6,1,0.9,2,0.9c0.4,0,0.8-0.1,1.3-0.2l-0.1,0.3c-0.3,0.9-0.9,1.3-1.7,1.3c-0.6,0-0.9-0.2-1-0.5l-0.1-0.6l-2.1,0.9l0.1,0.6 c0.2,1,1.1,1.5,2.5,1.5c2,0,3.5-1,4.2-3l2.7-7l-0.5-0.3C118.8,71.4,118,71.2,117,71.2z M116.1,76.7c-0.2,0-0.4,0.1-0.6,0.1 c-0.7,0.1-1.3,0-1.5-0.2c-0.1-0.2-0.1-0.4,0-0.8l0.5-1.4c0.3-0.9,0.9-1.3,1.9-1.3c0.3,0,0.6,0,0.9,0.1L116.1,76.7z"></path> <polygon class="st0" points="119,78.8 121,78.8 123.8,71.4 121.8,71.4 "></polygon> <path class="st0" d="M122.9,69.1c-0.3,0.2-0.5,0.5-0.6,0.7c-0.1,0.3-0.1,0.6,0,0.8c0.1,0.2,0.4,0.3,0.7,0.3c0.3,0,0.6-0.1,0.9-0.3 c0.3-0.2,0.5-0.5,0.6-0.7c0.1-0.3,0.1-0.6,0-0.8C124.2,68.7,123.5,68.7,122.9,69.1z"></path> <path class="st0" d="M129,71.2c-1,0-2,0.2-2.9,0.5l-0.7,0.3l-2.6,6.9h2l2.1-5.6c0.4-0.1,0.9-0.2,1.3-0.2c0.4,0,0.7,0.1,0.8,0.3 c0.1,0.2,0.1,0.4,0,0.7l-1.8,4.7h2l1.7-4.5c0.4-1,0.4-1.7,0.1-2.3C130.7,71.5,130,71.2,129,71.2z"></path> <path class="st0" d="M139,72c-0.2-0.2-0.5-0.4-0.8-0.6c-0.3-0.1-0.8-0.2-1.2-0.2c-1,0-2,0.3-2.7,0.7c-0.8,0.5-1.3,1.2-1.7,2.2 l-0.6,1.6c-0.2,0.5-0.3,0.9-0.3,1.3c0,0.4,0.1,0.8,0.2,1.1c0.2,0.3,0.4,0.5,0.8,0.7c0.4,0.2,0.8,0.2,1.4,0.2c1.5,0,2.7-0.4,3.6-1.3 l0.6-0.6l-1.4-1l-0.6,0.6l0,0c-0.4,0.4-1,0.6-1.7,0.6c-0.5,0-0.8-0.1-0.9-0.3c-0.1-0.2-0.1-0.4,0-0.8l0.1-0.3 c0.5,0.1,1,0.1,1.4,0.1c1,0,1.9-0.2,2.5-0.5c0.7-0.3,1.1-0.9,1.4-1.6c0.2-0.4,0.2-0.8,0.2-1.1C139.3,72.5,139.2,72.2,139,72z M135.8,74.4c-0.4,0-0.9,0-1.4-0.1l0-0.1c0.2-0.4,0.4-0.7,0.7-0.9c0.3-0.2,0.7-0.3,1.2-0.3c0.4,0,0.7,0.1,0.9,0.2 c0.1,0.1,0.2,0.3,0.1,0.5C137.2,73.9,137,74.4,135.8,74.4z"></path> <polygon class="st0" points="145.6,80.6 145.6,80.7 146.9,80.7 152.1,67.1 152.1,67 150.7,67 "></polygon> <path class="st0" d="M167.2,69.9c-0.2-0.3-0.6-0.6-1-0.8c-0.4-0.2-1-0.3-1.6-0.3h-3.7l-3.8,10h3.8c1.3,0,2.4-0.3,3.3-0.9 c0.9-0.6,1.6-1.5,2-2.7l0.9-2.4c0.2-0.6,0.3-1.1,0.3-1.6C167.5,70.7,167.4,70.3,167.2,69.9z M165.2,72.6l-0.9,2.5 c-0.2,0.6-0.6,1-1,1.3c-0.5,0.3-1,0.5-1.7,0.5H160l2.3-5.9h1.6c0.7,0,1.1,0.1,1.3,0.4C165.4,71.6,165.4,72,165.2,72.6z"></path> <path class="st0" d="M174.6,72c-0.2-0.2-0.5-0.4-0.8-0.6c-0.4-0.1-0.8-0.2-1.2-0.2c-1,0-2,0.3-2.7,0.7c-0.8,0.5-1.3,1.2-1.7,2.2 l-0.6,1.6c-0.2,0.5-0.3,0.9-0.3,1.3c0,0.4,0.1,0.8,0.2,1.1c0.2,0.3,0.4,0.5,0.8,0.7c0.4,0.2,0.8,0.2,1.4,0.2c1.5,0,2.7-0.4,3.6-1.3 l0.6-0.6l-1.4-1l-0.6,0.6v0c-0.4,0.4-1,0.6-1.7,0.6c-0.5,0-0.8-0.1-0.9-0.3c-0.1-0.2-0.1-0.4,0-0.8l0.1-0.3c0.5,0.1,1,0.1,1.4,0.1 c1,0,1.9-0.2,2.5-0.5c0.7-0.3,1.1-0.9,1.4-1.6c0.2-0.4,0.2-0.8,0.2-1.1C174.9,72.5,174.8,72.2,174.6,72z M172.9,73.7 c-0.1,0.2-0.3,0.7-1.5,0.7c-0.4,0-0.9,0-1.4-0.1l0-0.1c0.2-0.4,0.4-0.7,0.7-0.9c0.3-0.2,0.7-0.3,1.2-0.3c0.4,0,0.7,0.1,0.9,0.2 C172.9,73.3,173,73.4,172.9,73.7z"></path> <path class="st0" d="M179.4,73.1c0.6,0,1,0.2,1.1,0.5l0.1,0.5l2-0.7l-0.1-0.6c-0.1-1.1-1-1.6-2.5-1.6c-1,0-1.8,0.2-2.4,0.6 c-0.7,0.4-1.1,1-1.4,1.7c-0.2,0.4-0.2,0.8-0.2,1.2c0,0.3,0.2,0.6,0.5,0.8c0.2,0.2,0.5,0.3,0.8,0.4c0.3,0.1,0.6,0.1,1,0.2 c0.7,0.1,1,0.2,1.1,0.2c0.1,0,0.2,0.1,0.1,0.4c-0.1,0.2-0.2,0.6-1.5,0.6c-1,0-1-0.4-1.1-0.6l-0.1-0.6l-2,0.5l0,0.6 c0,1.2,0.9,1.8,2.6,1.8c1,0,1.8-0.2,2.5-0.6c0.7-0.4,1.2-1,1.5-1.7c0.2-0.4,0.2-0.8,0.2-1.1c0-0.3-0.1-0.6-0.3-0.8 c-0.2-0.2-0.4-0.4-0.8-0.5c-0.3-0.1-0.7-0.2-1.1-0.2c-0.7-0.1-0.9-0.2-1.1-0.2c-0.1,0-0.2-0.1,0-0.4 C178.1,73.5,178.3,73.1,179.4,73.1z"></path> <polygon class="st0" points="184.6,71.4 181.8,78.8 183.8,78.8 186.6,71.4 "></polygon> <path class="st0" d="M185.8,71c0.3,0,0.6-0.1,0.9-0.3c0.3-0.2,0.5-0.5,0.6-0.7c0.1-0.3,0.1-0.6,0-0.8c-0.3-0.4-1-0.4-1.5,0 c-0.3,0.2-0.5,0.5-0.6,0.7c-0.1,0.3-0.1,0.6,0,0.8C185.3,70.9,185.5,71,185.8,71z"></path> <path class="st0" d="M191.4,71.2c-1.1,0-2,0.2-2.7,0.7c-0.7,0.5-1.2,1.2-1.6,2.1l-0.6,1.5c-0.4,0.9-0.4,1.7-0.1,2.3 c0.3,0.6,1,0.9,2,0.9c0.4,0,0.8-0.1,1.3-0.2l-0.1,0.3c-0.3,0.9-0.9,1.3-1.7,1.3c-0.6,0-0.9-0.2-1-0.5l-0.1-0.6l-2.1,0.9l0.1,0.6 c0.2,1,1.1,1.5,2.5,1.5c2,0,3.5-1,4.2-3l2.7-7l-0.5-0.3C193.3,71.4,192.5,71.2,191.4,71.2z M190.5,76.7c-0.2,0-0.4,0.1-0.6,0.1 c-0.7,0.1-1.3,0-1.5-0.2c-0.1-0.2-0.1-0.4,0-0.8l0.5-1.4c0.3-0.9,0.9-1.3,1.9-1.3c0.3,0,0.6,0,0.9,0.1L190.5,76.7z"></path> <path class="st0" d="M199.7,71.2c-1,0-2,0.2-2.9,0.5l-0.7,0.3l-2.6,6.9h2l2.1-5.6c0.4-0.1,0.9-0.2,1.3-0.2c0.4,0,0.7,0.1,0.8,0.3 c0.1,0.2,0.1,0.4,0,0.7l-1.8,4.7h2l1.7-4.5c0.4-1,0.4-1.7,0.1-2.3C201.4,71.5,200.7,71.2,199.7,71.2z"></path> <polygon class="st0" points="208.6,80.6 208.5,80.7 209.9,80.7 215,67.1 215.1,67 213.7,67 "></polygon> <path class="st0" d="M230.2,69.9c-0.2-0.3-0.6-0.6-1-0.8c-0.4-0.2-1-0.3-1.6-0.3h-3.7l-3.8,10h3.8c1.3,0,2.4-0.3,3.3-0.9 c0.9-0.6,1.6-1.5,2-2.7l0.9-2.4c0.2-0.6,0.3-1.1,0.3-1.6C230.5,70.7,230.4,70.3,230.2,69.9z M228.2,72.6l-0.9,2.5 c-0.2,0.6-0.6,1-1,1.3c-0.5,0.3-1,0.5-1.7,0.5H223l2.3-5.9h1.6c0.7,0,1.1,0.1,1.3,0.4C228.4,71.6,228.4,72,228.2,72.6z"></path> <path class="st0" d="M237.6,72c-0.2-0.2-0.5-0.4-0.8-0.6c-0.4-0.1-0.8-0.2-1.2-0.2c-1,0-2,0.3-2.7,0.7c-0.8,0.5-1.3,1.2-1.7,2.2 l-0.6,1.6c-0.2,0.5-0.3,0.9-0.3,1.3c0,0.4,0.1,0.8,0.2,1.1c0.2,0.3,0.4,0.5,0.8,0.7c0.4,0.2,0.8,0.2,1.4,0.2c1.5,0,2.7-0.4,3.6-1.3 l0.6-0.6l-1.4-1l-0.6,0.6v0c-0.4,0.4-1,0.6-1.7,0.6c-0.5,0-0.8-0.1-0.9-0.3c-0.1-0.2-0.1-0.4,0-0.8l0.1-0.3c0.5,0.1,1,0.1,1.4,0.1 c1,0,1.9-0.2,2.5-0.5c0.7-0.3,1.1-0.9,1.4-1.6c0.2-0.4,0.2-0.8,0.2-1.1C237.9,72.5,237.8,72.2,237.6,72z M235.9,73.7 c-0.1,0.2-0.3,0.7-1.5,0.7c-0.4,0-0.9,0-1.4-0.1l0-0.1c0.2-0.4,0.4-0.7,0.7-0.9c0.3-0.2,0.7-0.3,1.2-0.3c0.4,0,0.7,0.1,0.9,0.2 C235.9,73.3,236,73.4,235.9,73.7z"></path> <polygon class="st0" points="241.3,68.4 237.4,78.8 239.4,78.8 243.3,68.4 "></polygon> <polygon class="st0" points="241.2,78.8 243.2,78.8 246,71.4 244,71.4 "></polygon> <path class="st0" d="M245.1,69.1c-0.3,0.2-0.5,0.5-0.6,0.7c-0.1,0.3-0.1,0.6,0,0.8c0.1,0.2,0.4,0.3,0.7,0.3c0.3,0,0.6-0.1,0.9-0.3 c0.3-0.2,0.5-0.5,0.6-0.7c0.1-0.3,0.1-0.6,0-0.8C246.4,68.7,245.7,68.7,245.1,69.1z"></path> <polygon class="st0" points="252.3,71.4 249,75.7 249,71.4 246.9,71.4 247.1,78.9 248.7,78.9 254.5,71.4 "></polygon> <path class="st0" d="M260.6,72c-0.2-0.2-0.5-0.4-0.8-0.6c-0.3-0.1-0.8-0.2-1.2-0.2c-1,0-2,0.3-2.7,0.7c-0.8,0.5-1.3,1.2-1.7,2.2 l-0.6,1.6c-0.2,0.5-0.3,0.9-0.3,1.3c0,0.4,0.1,0.8,0.2,1.1c0.2,0.3,0.4,0.5,0.8,0.7c0.4,0.2,0.8,0.2,1.4,0.2c1.5,0,2.7-0.4,3.6-1.3 l0.6-0.6l-1.4-1l-0.6,0.6v0c-0.4,0.4-1,0.6-1.7,0.6c-0.5,0-0.8-0.1-0.9-0.3c-0.1-0.2-0.1-0.4,0-0.8l0.1-0.3c0.5,0.1,1,0.1,1.4,0.1 c1,0,1.9-0.2,2.5-0.5c0.7-0.3,1.1-0.9,1.4-1.6c0.2-0.4,0.2-0.8,0.2-1.1C260.9,72.5,260.8,72.2,260.6,72z M258.9,73.7 c-0.1,0.2-0.3,0.7-1.5,0.7c-0.4,0-0.9,0-1.4-0.1l0-0.1c0.2-0.4,0.4-0.7,0.7-0.9c0.3-0.2,0.7-0.3,1.2-0.3c0.4,0,0.7,0.1,0.9,0.2 C258.9,73.3,259,73.4,258.9,73.7z"></path> <path class="st0" d="M266.4,71.2c-1,0-2,0.2-2.7,0.4c-0.3,0.1-0.5,0.2-0.6,0.4c-0.1,0.1-0.3,0.3-0.4,0.6l-2.4,6.3h2l2.1-5.6 c0,0,0,0,0,0c0.4-0.1,0.8-0.2,1.3-0.2h1.1l0.7-1.9H266.4z"></path> </g> </svg> 